PathFileType	4	(X/Y/Z)	C:/Users/opensim2020/Desktop/walking_exp_matlab/subject01_walking08_straight_03.trc	
DataRate	CameraRate	NumFrames	NumMarkers	Units	OrigDataRate	OrigDataStartFrame	OrigNumFrames	
100.00	100.00	8	43	mm	100.00	2750	326	
Frame#	Time	LFHD			RFHD			LBHD			RBHD			C7			T10			CLAV			STRN			RBAK			LSHO			LUPA			LELB			LFRM			LWRA			LWRB			LFIN			RSHO			RUPA			RELB			RFRM			RWRA			RWRB			RFIN			LASI			RASI			LPSI			RPSI			LTHI			LKNE			LTIB			LANK			LHEE			LTOE			RTHI			RKNE			RTIB			RANK			RHEE			RTOE			*39			*40			*41			*42			
		X1	Y1	Z1	X2	Y2	Z2	X3	Y3	Z3	X4	Y4	Z4	X5	Y5	Z5	X6	Y6	Z6	X7	Y7	Z7	X8	Y8	Z8	X9	Y9	Z9	X10	Y10	Z10	X11	Y11	Z11	X12	Y12	Z12	X13	Y13	Z13	X14	Y14	Z14	X15	Y15	Z15	X16	Y16	Z16	X17	Y17	Z17	X18	Y18	Z18	X19	Y19	Z19	X20	Y20	Z20	X21	Y21	Z21	X22	Y22	Z22	X23	Y23	Z23	X24	Y24	Z24	X25	Y25	Z25	X26	Y26	Z26	X27	Y27	Z27	X28	Y28	Z28	X29	Y29	Z29	X30	Y30	Z30	X31	Y31	Z31	X32	Y32	Z32	X33	Y33	Z33	X34	Y34	Z34	X35	Y35	Z35	X36	Y36	Z36	X37	Y37	Z37	X38	Y38	Z38	X39	Y39	Z39	X40	Y40	Z40	X41	Y41	Z41	X42	Y42	Z42	X43	Y43	Z43	

41	0.400	-1011.11688	-718.66516	1670.58777	-898.63672	-703.57776	1678.60132	-1001.15979	-816.28137	1592.48926	-881.26324	-802.75665	1598.57532	-962.28656	-813.01965	1422.61230	-953.95081	-840.15900	1128.37024	-965.72296	-667.31128	1358.75696	-978.94550	-620.70898	1203.84680	-888.18140	-859.07684	1224.07373	-1124.77844	-730.61731	1388.71631	-1213.27026	-737.79987	1205.32629	-1216.84766	-725.74835	1051.52954	-1236.04712	-649.32446	963.09723	-1210.91028	-533.41742	888.98077	-1236.54858	-580.59589	862.03113	-1243.20935	-509.24283	817.57172	-811.32953	-726.81793	1377.86938	-719.31140	-783.84253	1173.66284	-722.12366	-785.55963	1049.42554	-694.26691	-764.62701	930.89911	-714.43451	-689.26843	810.79187	-676.93420	-734.46777	813.04895	-678.95013	-701.01923	734.42853	-1074.55994	-679.76868	919.09399	-860.23541	-646.92432	930.99115	-994.04871	-855.26648	936.33588	-850.31543	-832.54395	940.51605	-1122.47253	-765.03839	590.60229	-1111.17310	-799.95605	458.62048	-1115.95764	-915.70282	307.80493	-1065.20325	-1018.89624	112.27036	-1006.69965	-1065.16150	98.26421	-1089.98462	-899.96826	29.50880	-796.22852	-638.49652	602.99860	-829.69940	-597.47028	451.38791	-820.63965	-623.81268	275.83505	-870.26489	-623.96063	71.83399	-921.14154	-670.74506	30.99494	-873.13629	-483.77710	37.93619	-919.41199	-726.24310	1706.68250	-3102.56714	1973.02417	1024.00330	-3138.48926	2013.14771	1022.14124			 
42	0.410	-1009.42029	-712.18561	1671.71570	-896.82373	-697.12793	1679.61255	-999.52917	-809.98053	1593.76648	-879.55774	-796.48456	1599.76794	-960.76416	-806.77618	1423.48047	-952.02368	-833.26074	1129.17529	-964.16418	-660.88312	1359.87439	-976.97229	-613.95984	1205.12488	-886.23108	-852.40222	1224.96887	-1122.99731	-724.07574	1389.62573	-1211.68933	-731.45471	1206.30750	-1215.14624	-720.70636	1052.37170	-1234.46436	-645.20709	963.19714	-1209.44702	-529.93530	888.04016	-1235.14893	-577.35742	861.49725	-1241.63855	-506.32352	816.37042	-809.57922	-720.46136	1379.05750	-717.48737	-777.18066	1174.87097	-720.63348	-778.46741	1050.54285	-693.08563	-757.02148	931.93524	-713.72656	-681.20551	812.13489	-676.12592	-726.22455	814.10077	-678.44104	-693.15283	735.63751	-1072.47046	-672.45868	920.55328	-858.38654	-639.90155	931.61414	-992.24976	-848.18164	937.59637	-848.61554	-825.44208	941.69574	-1121.91748	-754.43231	591.08118	-1111.11511	-787.91473	458.98077	-1116.32739	-907.05255	310.71298	-1066.08618	-1014.84528	117.51932	-1007.47522	-1061.09387	105.13808	-1090.09509	-899.32269	30.03146	-795.06213	-634.95203	602.90131	-828.46393	-595.03864	450.99200	-820.21143	-622.24292	275.73221	-870.21259	-623.79352	71.73640	-920.91882	-670.27417	30.67290	-873.35132	-483.51395	37.58876	-917.48407	-719.69568	1707.75085	-3102.47363	1972.98328	1023.97803						 
43	0.420	-1007.62988	-705.69659	1672.75989	-895.01849	-690.68530	1680.65149	-997.94159	-803.60797	1595.00317	-877.98431	-790.20929	1600.90002	-959.21002	-800.52496	1424.36523	-949.95941	-826.39691	1129.93140	-962.28448	-654.50061	1361.05701	-975.03033	-607.24060	1206.37073	-884.16364	-845.72998	1225.85986	-1121.31995	-717.66663	1390.41650	-1210.03601	-725.31622	1207.18384	-1213.48010	-715.74896	1053.13660	-1232.91870	-641.18732	963.27850	-1207.98987	-526.64136	886.93793	-1233.72791	-574.29419	860.87360	-1240.11780	-503.61081	815.03845	-807.94849	-713.97815	1380.28284	-715.52649	-770.41663	1176.11865	-719.03699	-771.29083	1051.56396	-691.79291	-749.37512	932.99591	-713.24622	-673.35297	813.54504	-675.18604	-717.87012	815.19879	-677.95990	-684.13617	736.75763	-1070.35950	-665.32190	921.99030	-856.54419	-633.05194	932.17163	-990.62054	-841.29504	938.61499	-846.88617	-818.35345	942.73053	-1121.66943	-743.66644	591.47675	-1111.39258	-775.37842	459.29974	-1116.80774	-897.92999	313.85645	-1066.92310	-1010.17987	123.06935	-1008.16840	-1056.27173	112.59831	-1089.79309	-898.97235	30.06610	-793.76770	-631.15448	603.07239	-827.18280	-592.57477	450.60260	-819.50171	-620.97302	275.44241	-870.11707	-623.81647	71.58214	-920.76013	-671.09491	31.49834	-873.48846	-483.27023	37.22483	-915.84888	-713.19232	1708.82959	-3103.13867	1972.69983	1024.51086	-3138.38477	2013.18958	1022.21075			 
44	0.430	-1006.19635	-699.26483	1673.76843	-893.50360	-684.28510	1681.62170	-996.43475	-797.29901	1596.15234	-876.47723	-783.93103	1602.06274	-957.59845	-794.19421	1425.18335	-947.81360	-819.63867	1130.73364	-960.82660	-648.14319	1362.02441	-973.04047	-600.63586	1207.50330	-882.02490	-839.09930	1226.81628	-1119.72009	-711.28619	1391.24536	-1208.29163	-719.42834	1207.94019	-1211.83972	-710.78284	1053.96814	-1231.41858	-637.18231	963.34924	-1206.58789	-523.49902	885.72046	-1232.32922	-571.38818	860.17255	-1238.59290	-501.13336	813.58313	-806.33624	-707.48096	1381.48669	-713.47070	-763.56714	1177.27087	-717.28876	-764.00995	1052.57788	-690.37195	-741.53418	933.99554	-712.33875	-664.91650	814.98907	-674.13647	-709.23492	816.41583	-677.52765	-675.66394	737.91132	-1068.33948	-658.39337	923.32629	-854.76917	-626.38611	932.62280	-989.00598	-834.62543	939.49915	-845.31573	-811.50061	943.73938	-1121.23340	-732.24097	591.99097	-1112.01111	-762.34528	459.64359	-1117.39771	-888.44171	317.31830	-1067.66821	-1004.82208	128.88072	-1008.53558	-1050.53394	120.38642	-1089.50610	-897.94989	30.46806	-792.61029	-627.32928	603.01984	-826.16827	-590.32623	450.27332	-818.81049	-620.31262	275.19376	-869.99719	-623.71741	71.52149	-920.59436	-671.11951	31.51916	-873.43750	-482.92429	36.80670	-914.39355	-706.75134	1709.82678	-3102.49341	1973.08044	1024.01306	-3138.33008	2013.11157	1022.09662			 
45	0.440	-1004.70587	-692.83856	1674.64697	-892.18909	-678.46295	1682.55042	-995.03613	-791.08295	1597.24219	-875.04279	-777.71149	1603.15527	-955.97015	-787.80652	1425.92627	-945.63977	-812.95996	1131.57520	-959.09338	-641.71930	1363.25256	-971.14948	-594.09900	1208.48816	-879.81201	-832.55750	1227.74097	-1118.12842	-705.01776	1391.96106	-1206.39954	-713.72412	1208.57031	-1210.29590	-705.80212	1054.70605	-1229.83411	-633.25342	963.40674	-1205.15894	-520.52838	884.41986	-1231.03577	-568.65540	859.41754	-1237.21558	-498.85373	812.07831	-804.73309	-701.05133	1382.58044	-711.34021	-756.50201	1178.41748	-715.33337	-756.63477	1053.58789	-688.76520	-733.55878	935.02710	-711.61462	-656.55902	816.34747	-673.01575	-700.64392	817.55853	-677.43835	-666.59570	739.11542	-1066.15503	-650.96674	924.54883	-852.90930	-619.94983	933.00024	-987.56024	-828.01672	940.14478	-843.84454	-804.93744	944.34155	-1121.09680	-720.58258	592.37732	-1112.51550	-748.69098	460.02560	-1117.96033	-878.49493	320.92572	-1068.33203	-998.83386	134.98842	-1008.77222	-1044.05115	128.41176	-1089.12170	-897.14832	31.01870	-791.52795	-623.37158	602.92017	-824.94708	-588.73456	449.89581	-817.93427	-620.20636	275.07382	-869.78894	-623.66650	71.38053	-920.29865	-670.95264	31.46907	-873.31708	-482.49747	36.32965	-912.94513	-700.33783	1710.79785	-3102.56445	1972.94275	1023.99347						 
46	0.450	-1003.36151	-686.51245	1675.40161	-890.71698	-671.65710	1683.33594	-993.66290	-784.69391	1598.05884	-873.67804	-771.54858	1604.12427	-954.35583	-781.49011	1426.61377	-943.50977	-806.28668	1132.32593	-957.74146	-635.35278	1363.96497	-969.32013	-587.59821	1209.37305	-877.55212	-826.14703	1228.61353	-1116.49402	-698.82227	1392.59875	-1204.62927	-708.15936	1209.10730	-1208.66541	-700.84497	1055.39148	-1228.37927	-629.37103	963.40771	-1203.76550	-517.67395	882.94287	-1229.77954	-566.07831	858.60486	-1236.06665	-496.67490	810.58655	-803.18018	-694.52234	1383.59509	-709.15210	-749.31696	1179.42383	-713.24994	-749.16125	1054.56531	-687.00610	-725.21149	936.15009	-710.88556	-648.06006	817.67975	-671.77997	-691.72595	818.59692	-676.85919	-657.27142	740.16943	-1064.36865	-644.33173	925.53247	-851.11877	-613.82996	933.36426	-986.17896	-821.66888	940.68195	-842.48645	-798.82690	945.02765	-1121.31189	-708.94537	592.71472	-1113.18127	-734.84210	460.22937	-1118.35217	-867.87335	324.34698	-1068.84326	-992.16626	141.13736	-1008.99359	-1036.88269	136.43097	-1088.70313	-896.13000	31.80444	-790.76788	-620.07367	602.77881	-823.23669	-586.67737	449.60364	-816.89380	-619.44647	274.77914	-869.61761	-623.39594	71.15664	-920.12292	-671.13116	31.59867	-873.23895	-482.26889	35.93251	-911.62347	-694.00238	1711.69250	-3102.04858	1973.16833	1024.00598	-3138.41772	2013.10095	1022.03290			 
47	0.460	-1002.17407	-680.17969	1675.98853	-889.48938	-665.44482	1684.08008	-992.35138	-778.41132	1598.74170	-872.38751	-765.33948	1604.97400	-952.67023	-775.30469	1427.21680	-941.50122	-799.79376	1133.01929	-955.86353	-629.07251	1364.67896	-967.63672	-581.18927	1210.07129	-875.22162	-819.66626	1229.46448	-1114.82703	-692.77515	1393.04517	-1202.50757	-702.86914	1209.54333	-1207.06189	-696.06464	1056.01563	-1226.87476	-625.59442	963.36798	-1202.38733	-515.04620	881.41534	-1228.63110	-563.62708	857.75568	-1234.77832	-494.76471	808.80469	-801.59973	-687.94458	1384.45691	-706.95184	-741.99500	1180.35254	-711.07208	-741.57861	1055.40491	-685.31299	-717.08124	936.94128	-709.96942	-639.36511	818.92352	-670.50214	-682.67773	819.63470	-676.12494	-647.47845	741.29858	-1062.76111	-638.05371	926.28491	-849.36230	-607.89801	933.73926	-984.98669	-815.47260	940.94830	-841.32495	-792.95624	945.43134	-1121.51636	-696.78717	593.01575	-1113.96643	-720.91449	460.31851	-1118.68298	-856.57849	327.64233	-1069.23999	-984.89386	147.32498	-1009.19177	-1029.07764	144.48921	-1087.73914	-894.49585	33.26235	-789.45898	-617.06604	602.94952	-821.81720	-584.62701	449.20398	-815.75006	-619.00995	274.74060	-869.33148	-623.62183	71.14809	-919.94586	-671.16913	31.55549	-873.12036	-481.99316	35.64331	-910.32684	-687.78766	1712.53235	-3102.51904	1972.96216	1024.00659	-3138.71680	2013.08289	1021.94495			 
48	0.470	-1000.91071	-673.91290	1676.45630	-888.25549	-659.30261	1684.66980	-991.04303	-772.19501	1599.25818	-871.11102	-759.18207	1605.71338	-950.95752	-768.88043	1427.69299	-939.68671	-793.37744	1133.54797	-954.50049	-622.82959	1365.29614	-966.11554	-574.84430	1210.57129	-873.02710	-813.24353	1230.18689	-1113.21899	-686.79132	1393.53027	-1200.57593	-697.64355	1209.94202	-1205.40808	-691.43182	1056.51819	-1225.44727	-621.92517	963.26477	-1201.06494	-512.53162	879.78186	-1227.49316	-561.32709	856.80865	-1233.53967	-493.14005	807.02130	-800.02142	-681.43353	1385.24805	-704.75787	-734.48718	1181.12866	-708.81366	-733.89423	1056.17981	-683.47522	-708.46216	937.75885	-709.11182	-630.57123	820.16022	-669.14954	-673.37006	820.64172	-675.40991	-637.96869	742.34009	-1061.25781	-631.81055	926.87140	-847.57257	-602.09692	934.00366	-983.93439	-809.35492	940.98431	-840.37201	-787.30151	945.78571	-1121.51367	-684.51758	593.12408	-1114.93835	-707.14124	460.31137	-1118.80408	-844.54614	330.18692	-1069.50037	-977.07489	153.09433	-1009.17194	-1021.22357	152.03036	-1086.93701	-891.33539	35.55734	-788.09930	-613.56085	603.04102	-820.55286	-582.90472	448.90411	-814.66370	-618.24109	274.52615	-869.08563	-623.54321	70.97878	-919.86731	-671.33490	31.75761	-872.95868	-481.79919	35.43414	-909.30457	-681.44165	1713.11243	-3102.87134	1972.81030	1023.94232	-3138.27661	2013.13306	1022.12964			 
